<svg xmlns="http://www.w3.org/2000/svg" viewBox="0 0 64 64">
  <rect width="64" height="64" rx="14" fill="#2563eb" />
  <path
    d="M18 41h-3a3 3 0 0 1-3-3v-7c0-2 1.4-3.7 3.4-4.1l3.1-.7 4.7-7A5 5 0 0 1 27.4 17h9.2a5 5 0 0 1 4.2 2.2l4.7 7 3.1.7A4.2 4.2 0 0 1 52 31v7a3 3 0 0 1-3 3h-3"
    fill="none"
    stroke="#eff6ff"
    stroke-width="4"
    stroke-linecap="round"
    stroke-linejoin="round"
  />
  <path
    d="M20 27h24M24 41h16"
    fill="none"
    stroke="#eff6ff"
    stroke-width="4"
    stroke-linecap="round"
  />
  <circle cx="22" cy="41" r="5" fill="#eff6ff" />
  <circle cx="42" cy="41" r="5" fill="#eff6ff" />
</svg>
